<svg xmlns="http://www.w3.org/2000/svg" xmlns:xlink="http://www.w3.org/1999/xlink" viewBox="0 0 1208.76 172.8"><defs><style>.cls-1{fill:none;}.cls-2{clip-path:url(#clip-path);}.cls-3{fill:url(#linear-gradient);}.cls-4{clip-path:url(#clip-path-2);}.cls-5{fill:url(#linear-gradient-2);}.cls-6{fill:#fff;}.cls-7{fill:#103928;}.cls-8{fill:#0d2e22;}</style><clipPath id="clip-path" transform="translate(0.98)"><path class="cls-1" d="M75.54,3.69A82.7,82.7,0,0,0,14.71,127L3,169.83l43.91-11.52A82.68,82.68,0,1,0,86.34,3a81.73,81.73,0,0,0-10.8.71"></path></clipPath><linearGradient id="linear-gradient" x1="-36.11" y1="486.4" x2="-35.11" y2="486.4" gradientTransform="translate(-8075711.84 -585754.34) rotate(-90) scale(16682.78 16603.3)" gradientUnits="userSpaceOnUse"><stop offset="0" stop-color="#20b038"></stop><stop offset="1" stop-color="#60d66a"></stop></linearGradient><clipPath id="clip-path-2" transform="translate(0.98)"><path class="cls-1" d="M27.74,126.19l-1.69-2.7a71.31,71.31,0,1,1,24.08,23.44l-2.62-1.55-26.94,7ZM75.28.73a85.66,85.66,0,0,0-63.09,127.7L0,172.8l45.47-11.94A85.64,85.64,0,1,0,86.41,0,84.79,84.79,0,0,0,75.28.73"></path></clipPath><linearGradient id="linear-gradient-2" x1="-36.11" y1="486.4" x2="-35.11" y2="486.4" gradientTransform="translate(-8369636.28 -606737.79) rotate(-90) scale(17280.29 17207.59)" gradientUnits="userSpaceOnUse"><stop offset="0" stop-color="#f9f9f9"></stop><stop offset="1" stop-color="#fff"></stop></linearGradient></defs><g id="Layer_2" data-name="Layer 2"><g id="Layer_1-2" data-name="Layer 1"><g class="cls-2"><rect class="cls-3" x="2.96" y="2.98" width="168.95" height="166.86"></rect></g><g class="cls-4"><rect class="cls-5" width="175.01" height="172.8"></rect></g><path class="cls-6" d="M0,172.79l12.19-44.37a85.85,85.85,0,1,1,33.28,32.44Zm47.51-27.41,2.62,1.55a71.16,71.16,0,1,0-24.08-23.44l1.69,2.7-7.17,26.22Z" transform="translate(0.98)"></path><path class="cls-6" d="M65,49.82c-1.6-3.57-3.29-3.64-4.82-3.7-1.24,0-2.67,0-4.1,0a7.94,7.94,0,0,0-3.14.74,8,8,0,0,0-2.57,1.95c-2,2.14-7.49,7.32-7.49,17.85s7.68,20.7,8.71,22.13,14.81,23.73,36.59,32.31c18.08,7.13,21.77,5.71,25.68,5.35s12.66-5.22,14.45-10.17,1.78-9.29,1.24-10.17-2-1.43-4.1-2.5-12.66-6.26-14.63-7-3.38-1.07-4.81,1.08-5.53,7-6.77,8.39-2.5,1.6-4.64.53A58.24,58.24,0,0,1,77.36,96,64.49,64.49,0,0,1,65.45,81.16c-1.25-2.13-.13-3.3.94-4.35s2.14-2.5,3.21-3.75a14.71,14.71,0,0,0,2.14-3.57,4,4,0,0,0,.38-1.9,3.92,3.92,0,0,0-.56-1.85C71,64.64,66.88,54.05,65,49.82" transform="translate(0.98)"></path><path class="cls-7" d="M277.93,102.07h-.22L263.44,44.54H246.25l-14.49,56.83h-.23L218.32,44.54H200L222.06,128h18.59L254.58,71.2h.24L268.94,128h18.24l22.43-83.48h-18Zm87.67-29.3a16.26,16.26,0,0,0-6.71-5A28.33,28.33,0,0,0,348,65.94a21.76,21.76,0,0,0-9.59,2.39A19.21,19.21,0,0,0,330.32,76H330V44.54h-16.6V128H330V96.34q0-9.24,3-13.28t9.83-4q6,0,8.29,3.69c1.56,2.45,2.34,6.18,2.34,11.16V128h16.6V90.84a48.75,48.75,0,0,0-1-10.23,19.56,19.56,0,0,0-3.46-7.84M434,114.58V83.14a14.49,14.49,0,0,0-2.46-8.83,16.84,16.84,0,0,0-6.31-5.23,28,28,0,0,0-8.54-2.52,68,68,0,0,0-9.23-.64,50.67,50.67,0,0,0-10,1,28.39,28.39,0,0,0-9,3.34A19.75,19.75,0,0,0,382,76.44a19.22,19.22,0,0,0-2.91,9.77h16.55c.31-3.28,1.41-5.61,3.28-7s4.44-2.09,7.72-2.09a28.84,28.84,0,0,1,4.15.28,9.45,9.45,0,0,1,3.38,1.17A6.31,6.31,0,0,1,416.52,81a8.74,8.74,0,0,1,.87,4.27,4.49,4.49,0,0,1-1.51,3.91,11.11,11.11,0,0,1-4.44,2A42.61,42.61,0,0,1,405,92.27c-2.41.23-4.87.56-7.36.94a69.42,69.42,0,0,0-7.42,1.58,21.32,21.32,0,0,0-6.55,3,15.37,15.37,0,0,0-4.68,5.33,17.66,17.66,0,0,0-1.81,8.48,19,19,0,0,0,1.58,8.07,15.21,15.21,0,0,0,4.35,5.61,18.74,18.74,0,0,0,6.54,3.28,29.69,29.69,0,0,0,8.07,1,37.48,37.48,0,0,0,11-1.62,21.81,21.81,0,0,0,9.36-5.74,24.83,24.83,0,0,0,.41,3,23.63,23.63,0,0,0,.76,2.86h16.84a13.79,13.79,0,0,1-1.64-5.61,60.81,60.81,0,0,1-.43-7.86Zm-16.61-9.94a31.23,31.23,0,0,1-.29,3.74,12.26,12.26,0,0,1-1.58,4.62,10.89,10.89,0,0,1-4,3.92c-1.79,1.1-4.36,1.64-7.6,1.64a20.58,20.58,0,0,1-3.85-.36,9.17,9.17,0,0,1-3.28-1.22,6.25,6.25,0,0,1-2.22-2.4,7.83,7.83,0,0,1-.82-3.74,8.16,8.16,0,0,1,.82-3.86,7.48,7.48,0,0,1,2.16-2.52,11,11,0,0,1,3.16-1.57,31,31,0,0,1,3.68-.94c1.32-.23,2.65-.43,4-.58s2.61-.36,3.81-.58a28.41,28.41,0,0,0,3.38-.87,7.63,7.63,0,0,0,2.62-1.47ZM465,49.45h-16.6V67.57H438.3V78.68h10v35.67a15.48,15.48,0,0,0,1.53,7.36,10.83,10.83,0,0,0,4.14,4.35,17,17,0,0,0,6.1,2.05,48.3,48.3,0,0,0,7.31.52c1.64,0,3.31,0,5-.1a40.77,40.77,0,0,0,4.68-.48V115.16a20.25,20.25,0,0,1-2.46.36c-.87.07-1.74.12-2.69.12-2.79,0-4.67-.48-5.61-1.41s-1.4-2.81-1.4-5.61V78.68h12.2V67.57H465Zm68.62,52.09a15,15,0,0,0-4.36-4.79,23.67,23.67,0,0,0-6.09-3.11q-3.5-1.15-7.08-2c-2.34-.55-4.63-1.06-6.89-1.53a56.8,56.8,0,0,1-6-1.57,12.56,12.56,0,0,1-4.26-2.29,4.68,4.68,0,0,1-1.24-1.62,4.59,4.59,0,0,1-.4-2,4.47,4.47,0,0,1,.93-3,6.32,6.32,0,0,1,2.29-1.74,10.56,10.56,0,0,1,3-.76c1-.1,2-.16,3-.16a16.53,16.53,0,0,1,7.73,1.69c2.17,1.13,3.39,3.29,3.61,6.49h15.78a20,20,0,0,0-2.87-9.31,18.89,18.89,0,0,0-6-5.89,25.17,25.17,0,0,0-8.25-3.16,48.25,48.25,0,0,0-9.52-.94,53.09,53.09,0,0,0-9.58.87,26.87,26.87,0,0,0-8.41,3,16.74,16.74,0,0,0-6,5.91,18.14,18.14,0,0,0-2.28,9.58A12.78,12.78,0,0,0,482.29,92a14.15,14.15,0,0,0,4.35,4.56,24.29,24.29,0,0,0,6.1,2.92c2.3.75,4.66,1.38,7.07,1.93a97.83,97.83,0,0,1,13.86,3.75q5,1.86,5,5.6a6.2,6.2,0,0,1-1,3.69,8,8,0,0,1-2.61,2.33,12.13,12.13,0,0,1-3.49,1.29,17.51,17.51,0,0,1-3.68.41,18.8,18.8,0,0,1-4.73-.58,12.47,12.47,0,0,1-4-1.81,9.76,9.76,0,0,1-2.87-3.16,9.2,9.2,0,0,1-1.11-4.62H479.24A19.26,19.26,0,0,0,488.42,125a27.21,27.21,0,0,0,8.94,3.48,50.73,50.73,0,0,0,10.28,1,52,52,0,0,0,10.11-1,25.84,25.84,0,0,0,8.84-3.49,18.31,18.31,0,0,0,8.64-16.49,14.13,14.13,0,0,0-1.64-7m33-57L535,128h18.48L560,109.44h31.22L597.53,128h19.06L585.38,44.54Zm-1.74,51.21,10.88-30.63h.23L586.43,95.8ZM674,75.72a25.46,25.46,0,0,0-8.53-7.14,26.22,26.22,0,0,0-12.27-2.69,23.75,23.75,0,0,0-10.29,2.22,18.14,18.14,0,0,0-7.71,7.14H635V67.57h-15.8V149.2h16.61V120.55H636a19.61,19.61,0,0,0,7.78,6.72,23.72,23.72,0,0,0,10.35,2.28,25.07,25.07,0,0,0,11.63-2.61,24.63,24.63,0,0,0,8.3-6.91,30.1,30.1,0,0,0,5-9.93,42.38,42.38,0,0,0,1.6-11.69A46.2,46.2,0,0,0,679,86.08a30.22,30.22,0,0,0-5-10.32Zm-10.63,29.34a17.88,17.88,0,0,1-2.4,6.1,13.35,13.35,0,0,1-14.35,5.74,13.53,13.53,0,0,1-8.21-5.74,18.42,18.42,0,0,1-2.46-6.1,33.45,33.45,0,0,1-.76-7.12,37.61,37.61,0,0,1,.7-7.26,18.56,18.56,0,0,1,2.4-6.2,13.7,13.7,0,0,1,4.45-4.35,12.76,12.76,0,0,1,6.83-1.7,12.56,12.56,0,0,1,6.72,1.7,13.74,13.74,0,0,1,4.5,4.44,19.42,19.42,0,0,1,2.52,6.25,33,33,0,0,1,.75,7.14,35.75,35.75,0,0,1-.71,7.15Zm81.82-19a30.07,30.07,0,0,0-5-10.35,25.49,25.49,0,0,0-8.54-7.14,26.22,26.22,0,0,0-12.27-2.69,23.72,23.72,0,0,0-10.29,2.22,18.35,18.35,0,0,0-7.72,7.14h-.22V67.57h-15.8V149.2h16.55V120.55h.23a19.7,19.7,0,0,0,7.79,6.72,23.71,23.71,0,0,0,10.34,2.28,25.07,25.07,0,0,0,11.63-2.61,24.54,24.54,0,0,0,8.3-6.91,29.72,29.72,0,0,0,5-9.93,41.33,41.33,0,0,0,1.63-11.7,46,46,0,0,0-1.59-12.29Zm-15.68,19a17.59,17.59,0,0,1-2.39,6.1,13.43,13.43,0,0,1-4.44,4.27,13.53,13.53,0,0,1-18.13-4.27,19,19,0,0,1-2.46-6.1,34.11,34.11,0,0,1-.76-7.12,37.62,37.62,0,0,1,.71-7.26,18.53,18.53,0,0,1,2.39-6.2,13.77,13.77,0,0,1,4.44-4.35,12.82,12.82,0,0,1,6.84-1.7,12.47,12.47,0,0,1,6.72,1.7,14,14,0,0,1,4.51,4.44,19.17,19.17,0,0,1,2.51,6.25,33.64,33.64,0,0,1,.77,7.14,37.35,37.35,0,0,1-.7,7.15Z" transform="translate(0.98)"></path><path class="cls-8" d="M775.55,44.54H809a36,36,0,0,1,12.49,1.86,22,22,0,0,1,8.07,4.91,18.08,18.08,0,0,1,4.36,7,24.05,24.05,0,0,1,1.34,7.84,17.86,17.86,0,0,1-1.17,6.43,16.35,16.35,0,0,1-3.33,5.37,19.15,19.15,0,0,1-11.74,6l.24.23a13.63,13.63,0,0,1,3.85.7,21.62,21.62,0,0,1,6.37,3.09,22.44,22.44,0,0,1,6,6.32,18.68,18.68,0,0,1,2.6,10.34,22.59,22.59,0,0,1-2.1,10,20.41,20.41,0,0,1-5.9,7.3,26.09,26.09,0,0,1-9.17,4.5,44,44,0,0,1-11.92,1.52H775.51ZM809,82.38q10.63,0,15.89-4.73a15.85,15.85,0,0,0,5.22-12.44,15.41,15.41,0,0,0-1.74-7.65,14.46,14.46,0,0,0-4.68-5,19.74,19.74,0,0,0-6.72-2.74,37.65,37.65,0,0,0-8-.82H780.68V82.38Zm0,41.12q11.22,0,17.58-4.73t6.37-14.19a16,16,0,0,0-2.22-8.82A16.43,16.43,0,0,0,825,90.33a23.7,23.7,0,0,0-7.72-2.75,47.67,47.67,0,0,0-8.35-.76H780.7V123.5Z" transform="translate(0.98)"></path><path class="cls-8" d="M895.89,128h-4.45V115.1h-.23a19.37,19.37,0,0,1-3.33,6,21.75,21.75,0,0,1-5,4.5,22.41,22.41,0,0,1-6.25,2.81,26.25,26.25,0,0,1-6.89.93,27.12,27.12,0,0,1-8.94-1.33,17.26,17.26,0,0,1-6-3.39,16.44,16.44,0,0,1-3.69-4.72,21.84,21.84,0,0,1-1.92-5.32,30.62,30.62,0,0,1-.71-5.22c-.07-1.68-.11-3.14-.11-4.36V67.92h4.44v38a56.39,56.39,0,0,0,.35,5.67,17.07,17.07,0,0,0,2,6.42,14.86,14.86,0,0,0,5.08,5.31c2.26,1.49,5.46,2.22,9.59,2.22a21.25,21.25,0,0,0,9-1.86,19.45,19.45,0,0,0,6.83-5.23,22.65,22.65,0,0,0,4.27-7.94,33.55,33.55,0,0,0,1.46-10.1V67.92h4.44Z" transform="translate(0.98)"></path><path class="cls-8" d="M911.07,108a18.53,18.53,0,0,0,1.87,7.41,17.69,17.69,0,0,0,10.4,8.94,23.83,23.83,0,0,0,7.59,1.17,40.87,40.87,0,0,0,6.25-.53,21.31,21.31,0,0,0,6.19-1.92,13,13,0,0,0,4.74-3.92,10.41,10.41,0,0,0,1.87-6.37c0-3.34-1-5.87-3-7.59a21.31,21.31,0,0,0-7.66-4,76.62,76.62,0,0,0-9.92-2.28,51.59,51.59,0,0,1-9.94-2.61,20.22,20.22,0,0,1-7.65-5q-3-3.21-3-9.4a13.14,13.14,0,0,1,2-7.42,14.88,14.88,0,0,1,5.09-4.73,23.27,23.27,0,0,1,7-2.51,39,39,0,0,1,7.7-.76,35,35,0,0,1,8.77,1A18.86,18.86,0,0,1,946.31,71a16.22,16.22,0,0,1,4.68,6,20.59,20.59,0,0,1,1.69,8.76h-4.44a16.69,16.69,0,0,0-1.35-7A12.23,12.23,0,0,0,943.16,74a16.19,16.19,0,0,0-5.67-2.69,26.77,26.77,0,0,0-7-.87,32.83,32.83,0,0,0-6.1.58,17.83,17.83,0,0,0-5.55,2,12.37,12.37,0,0,0-4,3.62A9,9,0,0,0,913.27,82,9.17,9.17,0,0,0,915,87.79a12.39,12.39,0,0,0,4.62,3.56,31.1,31.1,0,0,0,6.42,2.16l7.19,1.64q4.44.82,8.35,1.93a23.9,23.9,0,0,1,6.78,3,13.83,13.83,0,0,1,4.5,5,16.19,16.19,0,0,1,1.63,7.71,13.7,13.7,0,0,1-2.22,8.06,17,17,0,0,1-5.6,5.08,23.54,23.54,0,0,1-7.54,2.69,44.3,44.3,0,0,1-8.12.76A32.31,32.31,0,0,1,921.5,128a21.62,21.62,0,0,1-7.65-4.09,19.44,19.44,0,0,1-5.14-6.72,22.39,22.39,0,0,1-2-9.22Z" transform="translate(0.98)"></path><path class="cls-8" d="M966.22,44.54h4.43V56.6h-4.43Zm0,83.44V67.92h4.43V128Z" transform="translate(0.98)"></path><path class="cls-8" d="M984.78,67.92h4.44V80.78h.24a18.91,18.91,0,0,1,3.33-6,22.14,22.14,0,0,1,11.27-7.3,26,26,0,0,1,6.9-.94,27,27,0,0,1,8.93,1.29,17.37,17.37,0,0,1,6,3.39,16.34,16.34,0,0,1,3.69,4.73,22.21,22.21,0,0,1,1.93,5.31,31.76,31.76,0,0,1,.7,5.23c.07,1.67.12,3.13.12,4.35V128h-4.45V90a55.21,55.21,0,0,0-.35-5.61,17,17,0,0,0-2-6.48,14.89,14.89,0,0,0-5.14-5.32c-2.33-1.48-5.5-2.22-9.53-2.22a21.15,21.15,0,0,0-9.1,1.87A19.91,19.91,0,0,0,995,77.44a22.92,22.92,0,0,0-4.26,8,33.24,33.24,0,0,0-1.47,10.1V128h-4.44Z" transform="translate(0.98)"></path><path class="cls-8" d="M1047.05,98.5v.71a35.85,35.85,0,0,0,1.4,10,26,26,0,0,0,4.17,8.42,19.73,19.73,0,0,0,6.91,5.72,21.25,21.25,0,0,0,9.67,2.1q9,0,14.28-4.73t7.27-13.15h4.44q-2,10.52-8.59,16.13t-17.42,5.61a26.5,26.5,0,0,1-11.63-2.4,23.61,23.61,0,0,1-8.29-6.54,27.55,27.55,0,0,1-5-9.82,43.64,43.64,0,0,1-1.63-12.19,42.34,42.34,0,0,1,1.74-12.09,30.35,30.35,0,0,1,5.07-10.17,25.19,25.19,0,0,1,8.48-7,28.21,28.21,0,0,1,23.13-.3,23.33,23.33,0,0,1,8.11,6.37,28,28,0,0,1,5,9.34A37.06,37.06,0,0,1,1095.9,96a10.63,10.63,0,0,1-.06,1.34,9.23,9.23,0,0,0-.06,1.23Zm44.16-3.85a35.8,35.8,0,0,0-1.63-9.29,23,23,0,0,0-4.17-7.71,20.64,20.64,0,0,0-6.67-5.31,19.72,19.72,0,0,0-9-2,20.9,20.9,0,0,0-9.49,2.05,21.29,21.29,0,0,0-6.91,5.37,23.79,23.79,0,0,0-4.35,7.76,36.12,36.12,0,0,0-1.89,9.12Z" transform="translate(0.98)"></path><path class="cls-8" d="M1108.15,108a18.53,18.53,0,0,0,1.87,7.41,17.69,17.69,0,0,0,10.4,8.94,23.9,23.9,0,0,0,7.6,1.17,40.74,40.74,0,0,0,6.24-.53,21.46,21.46,0,0,0,6.2-1.92,12.82,12.82,0,0,0,4.72-3.92,10.42,10.42,0,0,0,1.88-6.37q0-5-3-7.59a21.31,21.31,0,0,0-7.66-4,76.39,76.39,0,0,0-9.93-2.28,52.43,52.43,0,0,1-9.93-2.61,20.11,20.11,0,0,1-7.64-5q-3-3.21-3-9.4a13.05,13.05,0,0,1,2-7.42,14.79,14.79,0,0,1,5.09-4.73,23.31,23.31,0,0,1,7-2.51,39.29,39.29,0,0,1,7.71-.76,34.89,34.89,0,0,1,8.76,1,18.83,18.83,0,0,1,7.07,3.39,16.22,16.22,0,0,1,4.68,6,20.74,20.74,0,0,1,1.69,8.76h-4.44a16.69,16.69,0,0,0-1.35-7,12.23,12.23,0,0,0-3.73-4.73,16.23,16.23,0,0,0-5.66-2.69,26.9,26.9,0,0,0-7-.87,32.83,32.83,0,0,0-6.1.58,17.74,17.74,0,0,0-5.55,2,12.37,12.37,0,0,0-4,3.62,9,9,0,0,0-1.58,5.37,9.23,9.23,0,0,0,1.74,5.84,12.39,12.39,0,0,0,4.62,3.56,31.1,31.1,0,0,0,6.42,2.16l7.19,1.64q4.44.82,8.35,1.93a23.9,23.9,0,0,1,6.78,3,13.92,13.92,0,0,1,4.5,5,16.09,16.09,0,0,1,1.62,7.71,13.68,13.68,0,0,1-2.2,8.06,17.17,17.17,0,0,1-5.61,5.08,23.54,23.54,0,0,1-7.54,2.69,45.11,45.11,0,0,1-8.12.76,32.42,32.42,0,0,1-9.53-1.34,21.66,21.66,0,0,1-7.64-4.09,19.44,19.44,0,0,1-5.14-6.72,22.71,22.71,0,0,1-2-9.22Z" transform="translate(0.98)"></path><path class="cls-8" d="M1164.34,108a18.53,18.53,0,0,0,1.87,7.41,17.69,17.69,0,0,0,10.4,8.94,23.9,23.9,0,0,0,7.6,1.17,40.74,40.74,0,0,0,6.24-.53,21.31,21.31,0,0,0,6.19-1.92,12.77,12.77,0,0,0,4.73-3.92,10.34,10.34,0,0,0,1.87-6.37q0-5-3-7.59a21.22,21.22,0,0,0-7.64-4,77.15,77.15,0,0,0-9.93-2.28,51.78,51.78,0,0,1-9.94-2.61,20.15,20.15,0,0,1-7.65-5q-3-3.21-3-9.4a13.06,13.06,0,0,1,2-7.42,14.79,14.79,0,0,1,5.09-4.73,23.31,23.31,0,0,1,7-2.51,39.21,39.21,0,0,1,7.71-.76,34.89,34.89,0,0,1,8.76,1,18.83,18.83,0,0,1,7.07,3.39,16.22,16.22,0,0,1,4.68,6,20.58,20.58,0,0,1,1.68,8.76h-4.43a16.69,16.69,0,0,0-1.35-7,12.33,12.33,0,0,0-3.73-4.73,16.23,16.23,0,0,0-5.66-2.69,26.92,26.92,0,0,0-7-.87,32.8,32.8,0,0,0-6.09.58,17.74,17.74,0,0,0-5.55,2,12.37,12.37,0,0,0-4,3.62,10.3,10.3,0,0,0,.16,11.21,12.39,12.39,0,0,0,4.62,3.56,31,31,0,0,0,6.43,2.16q3.56.83,7.18,1.64,4.44.82,8.35,1.93a23.9,23.9,0,0,1,6.78,3,13.92,13.92,0,0,1,4.5,5,16.19,16.19,0,0,1,1.63,7.71,13.77,13.77,0,0,1-2.21,8.06,17.1,17.1,0,0,1-5.62,5.08,23.4,23.4,0,0,1-7.53,2.69,45,45,0,0,1-8.12.76,32.31,32.31,0,0,1-9.52-1.34,21.46,21.46,0,0,1-7.65-4.09,19.44,19.44,0,0,1-5.14-6.72,22.71,22.71,0,0,1-2-9.22Z" transform="translate(0.98)"></path></g></g></svg>